<svg
    xmlns="http://www.w3.org/2000/svg"
    version="1.1"
    viewBox="-5.0 -10.0 110.0 135.0"
>
 <path
        d="m65.082 66.82c3.3125 0 5.9922-2.707 5.9922-6.0508s-2.6758-6.0508-5.9922-6.0508c-3.3125 0-5.9922 2.707-5.9922 6.0508 0 3.3398 2.6797 6.0508 5.9922 6.0508z"
    />
 <path
        d="m34.988 66.82c3.3125 0 5.9922-2.707 5.9922-6.0508s-2.6797-6.0508-5.9922-6.0508-6.0625 2.707-6.0625 6.0508c0 3.3398 2.75 6.0508 6.0625 6.0508z"
    />
 <path
        d="m41.02 9.0156c0 2.8906 1.4648 5.5352 3.7539 7.2109-0.30078 2.0352-1.8359 12.422-2.2266 15.059h-21.797c-7.793 0-14.129 6.4219-14.129 14.316v40.152c0 7.8555 6.3359 14.246 14.129 14.246h58.504c7.7891 0 14.125-6.3906 14.125-14.246v-40.152c0-7.8945-6.3359-14.316-14.125-14.316h-21.801c-0.39062-2.6328-1.918-12.961-2.2188-15.012 2.332-1.6758 3.8203-4.3359 3.8203-7.2578 0-4.9688-4.0469-9.0156-9.0195-9.0156s-9.0156 4.0469-9.0156 9.0156zm-30.109 76.738v-40.152c0-5.5273 4.4141-10.027 9.8398-10.027h25.512l0.26953-1.9023 2.9141-19.707-1.4336-0.67969c-1.6406-0.77734-2.7031-2.4531-2.7031-4.2656 0-2.6055 2.1211-4.7266 4.7305-4.7266 2.6094 0 4.7305 2.1211 4.7305 4.7266 0 1.832-1.0781 3.5156-2.7539 4.2891l-1.457 0.67188 3.1797 21.523 1.8516 0.074219h23.664c5.4219 0 9.8359 4.5 9.8359 10.027v40.152c0 5.4883-4.4102 9.957-9.8359 9.957l-58.504-0.003906c-5.4258 0-9.8398-4.4648-9.8398-9.957z"
    />
 <path
        d="m23.992 41.395c-4.3711 0-7.9258 3.582-7.9258 7.9844v22.781c0 4.4023 3.5547 7.9844 7.9258 7.9844h52.016c4.3711 0 7.9219-3.582 7.9219-7.9844v-22.781c0-2.1172-0.82422-4.1172-2.3203-5.6289-1.5-1.5195-3.4922-2.3555-5.6055-2.3555zm-3.6367 30.766v-22.781c0-2.0039 1.6641-3.6953 3.6367-3.6953h52.016c0.95703 0 1.8633 0.38281 2.5547 1.082 0.69531 0.70312 1.0781 1.6328 1.0781 2.6133v22.781c0 2.0352-1.6289 3.6914-3.6328 3.6914h-52.016c-1.9727 0-3.6367-1.6914-3.6367-3.6914z"
    />
</svg>
